<svg id="Layer_1" data-name="Layer 1" xmlns="http://www.w3.org/2000/svg" viewBox="0 0 194.55 120.57"><title>cat-2</title><path d="M1.86,92.44C22.14,105.24,43.2,104.54,65.5,97c-1.31-1.56-2.19-2.69-3.14-3.75C40.83,69.38,45.76,34.56,73.08,17.72,91,6.68,110.59.6,131.52.5c24-.11,45.6,6.7,61.3,26.46a4.69,4.69,0,0,1,.9,1.82c-20.09-14-41.39-14.15-64-6.24,2.32,2.74,4.44,5,6.34,7.52,16.09,20.9,13.09,51.82-8.25,67.26C100.07,117.41,69,125.67,35,116.08A59.56,59.56,0,0,1,1.86,92.44ZM127.53,59.65c0-16.49-13.67-30.25-30-30.23a30.22,30.22,0,1,0,30,30.23Z" fill="#fee777" stroke="#010101" stroke-miterlimit="10"/><path d="M85.14,96.77V87.18L93.81,65.7c3-7.48,4.82-14,4.82-20.61,0-4.7-1.75-8-5.52-8a10.1,10.1,0,0,0-6,2.3L84.94,27.16c2.38-1.92,5.45-3.36,10.41-3.36,10.9,0,15.3,8.34,15.3,20.42,0,9.78-4.12,19.46-8.59,30l-4.26,10h12.64V96.77Z" fill="#010101"/></svg>