<svg id="Layer_1" data-name="Layer 1" xmlns="http://www.w3.org/2000/svg" viewBox="0 0 194.55 120.57"><title>cat-3</title><path d="M1.86,92.44C22.14,105.24,43.2,104.54,65.5,97c-1.31-1.56-2.19-2.69-3.14-3.75C40.83,69.38,45.76,34.56,73.08,17.72,91,6.68,110.59.6,131.52.5c24-.11,45.6,6.7,61.3,26.46a4.69,4.69,0,0,1,.9,1.82c-20.09-14-41.39-14.15-64-6.24,2.32,2.74,4.44,5,6.34,7.52,16.09,20.9,13.09,51.82-8.25,67.26C100.07,117.41,69,125.67,35,116.08A59.56,59.56,0,0,1,1.86,92.44ZM127.53,59.65c0-16.49-13.67-30.25-30-30.23a30.22,30.22,0,1,0,30,30.23Z" fill="#fec140" stroke="#010101" stroke-miterlimit="10"/><path d="M84.94,93.3l2.5-12.1a10.5,10.5,0,0,0,6.48,2.34c4,0,6.07-3.75,6.07-9S98.63,65.26,94,65.26H91.82V53.44H94c3.78,0,5.87-3.28,5.87-8.63S98,36.65,93.77,36.65A9.58,9.58,0,0,0,88,38.9L85.68,27.27A15.09,15.09,0,0,1,95.73,23.8c8.84,0,14.17,7,14.17,19.79,0,7.78-2.83,12.85-6.95,15.1,5.26,2.63,7.69,8.91,7.69,17.07,0,12.19-5.67,21-15.32,21A15.67,15.67,0,0,1,84.94,93.3Z" fill="#010101"/></svg>