<svg id="Layer_1" data-name="Layer 1" xmlns="http://www.w3.org/2000/svg" viewBox="0 0 194.55 120.57"><title>trop-storm</title><path d="M1.86,92.44C22.14,105.24,43.2,104.54,65.5,97c-1.31-1.56-2.19-2.69-3.14-3.75C40.83,69.38,45.76,34.56,73.08,17.72,91,6.68,110.59.6,131.52.5c24-.11,45.6,6.7,61.3,26.46a4.69,4.69,0,0,1,.9,1.82c-20.09-14-41.39-14.15-64-6.24,2.32,2.74,4.44,5,6.34,7.52,16.09,20.9,13.09,51.82-8.25,67.26C100.07,117.41,69,125.67,35,116.08A59.56,59.56,0,0,1,1.86,92.44ZM127.53,59.65c0-16.49-13.67-30.25-30-30.23a30.22,30.22,0,1,0,30,30.23Z" fill="#6ecbd6" stroke="#010101" stroke-miterlimit="10"/><path d="M72.64,42.75H62.81V33H95.33v9.76H85.58v46.9H72.64Z" fill="#010101"/><path d="M115.61,42.6c-2.95,0-5,1.66-5,4.39,0,1.89.91,3.18,2.34,4.54,3.1,3,6.88,5.52,10,8.62,3.25,3.18,5.82,6.88,5.82,13.46,0,9.46-5.75,16.72-16.94,16.72C105,90.33,101,89,97.38,87.08l3.4-10.14a21.66,21.66,0,0,0,9.83,2.8c4.31,0,5.9-2.27,5.9-4.84a6.16,6.16,0,0,0-2.5-4.84c-2.72-2.34-6.35-4.92-9.83-8.55-2.5-2.65-5.67-6.13-5.67-13.39,0-9.46,6.58-15.88,16.49-15.88A26.62,26.62,0,0,1,127.48,35l-2.95,9.91A20.08,20.08,0,0,0,115.61,42.6Z" fill="#010101"/></svg>