<svg id="Layer_1" data-name="Layer 1" xmlns="http://www.w3.org/2000/svg" viewBox="0 0 194.55 120.57"><title>trop-depression</title><path d="M1.86,92.44C22.14,105.24,43.2,104.54,65.5,97c-1.31-1.56-2.19-2.69-3.14-3.75C40.83,69.38,45.76,34.56,73.08,17.72,91,6.68,110.59.6,131.52.5c24-.11,45.6,6.7,61.3,26.46a4.69,4.69,0,0,1,.9,1.82c-20.09-14-41.39-14.15-64-6.24,2.32,2.74,4.44,5,6.34,7.52,16.09,20.9,13.09,51.82-8.25,67.26C100.07,117.41,69,125.67,35,116.08A59.56,59.56,0,0,1,1.86,92.44ZM127.53,59.65c0-16.49-13.67-30.25-30-30.23a30.22,30.22,0,1,0,30,30.23Z" fill="#71b6e4" stroke="#010101" stroke-miterlimit="10"/><path d="M69.92,41.51H60.51V32.17H91.65v9.34H82.31v44.9H69.92Z" fill="#010101"/><path d="M96.79,32.17h14.7c13.47,0,21.58,9.12,21.58,27.37s-8.18,26.87-21.58,26.87H96.79Zm12.31,9.78V76.63h1.59c6.73,0,9.85-4.71,9.85-17.23s-3.11-17.45-9.85-17.45Z" fill="#010101"/></svg>