<svg data-name="Layer 1" xmlns="http://www.w3.org/2000/svg" viewBox="0 0 194.55 120.57"><title>cat-2</title><path d="M1.86 92.44c20.28 12.8 41.34 12.1 63.64 4.56-1.31-1.56-2.19-2.69-3.14-3.75-21.53-23.87-16.6-58.69 10.72-75.53C91 6.68 110.59.6 131.52.5c24-.11 45.6 6.7 61.3 26.46a4.69 4.69 0 0 1 .9 1.82c-20.09-14-41.39-14.15-64-6.24 2.32 2.74 4.44 5 6.34 7.52 16.09 20.9 13.09 51.82-8.25 67.26C100.07 117.41 69 125.67 35 116.08A59.56 59.56 0 0 1 1.86 92.44zm125.67-32.79c0-16.49-13.67-30.25-30-30.23a30.22 30.22 0 1 0 30 30.23z" fill="#fee777" stroke="#010101" stroke-miterlimit="10"/><path d="M85.14 96.77v-9.59l8.67-21.48c3-7.48 4.82-14 4.82-20.61 0-4.7-1.75-8-5.52-8a10.1 10.1 0 0 0-6 2.3l-2.17-12.23c2.38-1.92 5.45-3.36 10.41-3.36 10.9 0 15.3 8.34 15.3 20.42 0 9.78-4.12 19.46-8.59 30l-4.26 10h12.64v12.55z" fill="#010101"/></svg>