<svg data-name="Layer 1" xmlns="http://www.w3.org/2000/svg" viewBox="0 0 194.55 120.57"><title>cat-5</title><path d="M1.86 92.44c20.28 12.8 41.34 12.1 63.64 4.56-1.31-1.56-2.19-2.69-3.14-3.75-21.53-23.87-16.6-58.69 10.72-75.53C91 6.68 110.59.6 131.52.5c24-.11 45.6 6.7 61.3 26.46a4.69 4.69 0 0 1 .9 1.82c-20.09-14-41.39-14.15-64-6.24 2.32 2.74 4.44 5 6.34 7.52 16.09 20.9 13.09 51.82-8.25 67.26C100.07 117.41 69 125.67 35 116.08A59.56 59.56 0 0 1 1.86 92.44zm125.67-32.79c0-16.49-13.67-30.25-30-30.23a30.22 30.22 0 1 0 30 30.23z" fill="#f16162" stroke="#010101" stroke-miterlimit="10"/><path d="M84.94 93.53l2.71-12.19a8.41 8.41 0 0 0 5.49 1.81c3.66 0 6.44-3.81 6.44-10.86 0-7.72-2.31-11-6.78-11a9.61 9.61 0 0 0-4.68 1.24l-.27-.29 1.7-38.39h20.08v12.72H97.89l-.61 13.33c8.48.57 13.36 8.86 13.36 22 0 15.43-6.24 24.86-16.41 24.86a14.16 14.16 0 0 1-9.29-3.23z" fill="#010101"/></svg>