<svg data-name="Layer 1" xmlns="http://www.w3.org/2000/svg" viewBox="0 0 194.55 120.57"><title>cat-4</title><path d="M1.86 92.44c20.28 12.8 41.34 12.1 63.64 4.56-1.31-1.56-2.19-2.69-3.14-3.75-21.53-23.87-16.6-58.69 10.72-75.53C91 6.68 110.59.6 131.52.5c24-.11 45.6 6.7 61.3 26.46a4.69 4.69 0 0 1 .9 1.82c-20.09-14-41.39-14.15-64-6.24 2.32 2.74 4.44 5 6.34 7.52 16.09 20.9 13.09 51.82-8.25 67.26C100.07 117.41 69 125.67 35 116.08A59.56 59.56 0 0 1 1.86 92.44zm125.67-32.79c0-16.49-13.67-30.25-30-30.23a30.22 30.22 0 1 0 30 30.23z" fill="#f78f27" stroke="#010101" stroke-miterlimit="10"/><path d="M107.21 81.67v15.1h-9v-15.1H84.94v-9.55L95 23.8h12.2v46.57h3.44v11.3zm-9-11.3V48.64l.3-11.49h-.12l-1.67 10.91-4.5 22.31z" fill="#010101"/></svg>