<svg data-name="Layer 1" xmlns="http://www.w3.org/2000/svg" viewBox="0 0 194.55 120.57"><title>trop-depression</title><path d="M1.86 92.44c20.28 12.8 41.34 12.1 63.64 4.56-1.31-1.56-2.19-2.69-3.14-3.75-21.53-23.87-16.6-58.69 10.72-75.53C91 6.68 110.59.6 131.52.5c24-.11 45.6 6.7 61.3 26.46a4.69 4.69 0 0 1 .9 1.82c-20.09-14-41.39-14.15-64-6.24 2.32 2.74 4.44 5 6.34 7.52 16.09 20.9 13.09 51.82-8.25 67.26C100.07 117.41 69 125.67 35 116.08A59.56 59.56 0 0 1 1.86 92.44zm125.67-32.79c0-16.49-13.67-30.25-30-30.23a30.22 30.22 0 1 0 30 30.23z" fill="#71b6e4" stroke="#010101" stroke-miterlimit="10"/><path d="M69.92 41.51h-9.41v-9.34h31.14v9.34h-9.34v44.9H69.92zM96.79 32.17h14.7c13.47 0 21.58 9.12 21.58 27.37s-8.18 26.87-21.58 26.87h-14.7zm12.31 9.78v34.68h1.59c6.73 0 9.85-4.71 9.85-17.23s-3.11-17.45-9.85-17.45z" fill="#010101"/></svg>